<?xml version="1.0" encoding="utf-8"?>
<!-- Generator: Adobe Illustrator 28.0.0, SVG Export Plug-In . SVG Version: 6.00 Build 0)  -->
<svg version="1.1" id="Ebene_1" xmlns="http://www.w3.org/2000/svg" xmlns:xlink="http://www.w3.org/1999/xlink" x="0px" y="0px"
	 viewBox="0 0 190.852 43.937" style="enable-background:new 0 0 190.852 43.937;" xml:space="preserve">
<style type="text/css">
	.st0{fill:#003DA4;}
	.st1{fill:#80C3F2;}
</style>
<g>
	<path class="st0" d="M7.271,16.191H4.386c-0.308,0-0.492-0.153-0.55-0.462L0.422,2.537C0.319,2.2,0.466,2.03,0.863,2.03h2.07
		c0.294,0,0.47,0.153,0.529,0.462l2.313,10.836h0.088L8.175,2.493C8.233,2.184,8.409,2.03,8.703,2.03h2.07
		c0.367,0,0.514,0.169,0.44,0.506L7.8,15.729C7.726,16.038,7.55,16.191,7.271,16.191z"/>
	<path class="st0" d="M12.887,15.729V2.493c0-0.309,0.154-0.462,0.462-0.462h5.44c1.145,0,2.037,0.312,2.676,0.936
		c0.639,0.625,0.958,1.508,0.958,2.654v6.981c0,1.146-0.319,2.031-0.958,2.654s-1.53,0.936-2.676,0.936h-5.44
		C13.041,16.191,12.887,16.038,12.887,15.729z M15.977,13.769h2.401c0.47,0,0.804-0.099,1.003-0.297
		c0.198-0.198,0.297-0.532,0.297-1.002V5.752c0-0.47-0.099-0.804-0.297-1.002c-0.198-0.198-0.533-0.297-1.003-0.297h-2.401
		c-0.162,0-0.242,0.081-0.242,0.242v8.831C15.735,13.688,15.815,13.769,15.977,13.769z"/>
	<path class="st0" d="M27.522,2.493v13.236c0,0.309-0.154,0.462-0.462,0.462h-1.872c-0.308,0-0.462-0.153-0.462-0.462V2.493
		c0-0.309,0.154-0.462,0.462-0.462h1.872C27.368,2.03,27.522,2.184,27.522,2.493z"/>
	<path class="st0" d="M34.193,10.289h-4.185c-0.308,0-0.462-0.154-0.462-0.462V8.528c0-0.324,0.154-0.485,0.462-0.485h4.185
		c0.308,0,0.462,0.161,0.462,0.485v1.299C34.655,10.135,34.501,10.289,34.193,10.289z"/>
	<path class="st0" d="M35.936,15.729v-1.322c0-0.484,0.095-0.844,0.286-1.078l5.836-8.612V4.629h-5.263
		c-0.308,0-0.462-0.154-0.462-0.462V2.493c0-0.309,0.154-0.462,0.462-0.462h7.819c0.293,0,0.44,0.153,0.44,0.462v1.894
		c0,0.441-0.11,0.823-0.33,1.146l-5.484,7.972v0.088h5.594c0.294,0,0.44,0.14,0.44,0.418v1.674c0,0.338-0.147,0.506-0.44,0.506
		h-8.435C36.09,16.191,35.936,16.038,35.936,15.729z"/>
	<path class="st0" d="M51.114,16.191h-0.726c-1.131,0-1.986-0.308-2.566-0.925c-0.58-0.617-0.87-1.505-0.87-2.665v-7.18
		c0-0.308,0.154-0.462,0.462-0.462h1.872c0.308,0,0.462,0.154,0.462,0.462v7.048c0,0.47,0.099,0.804,0.297,1.002
		c0.198,0.198,0.525,0.297,0.98,0.297h0.815c1.013,0,1.52-0.557,1.52-1.674V5.422c0-0.308,0.154-0.462,0.462-0.462h1.85
		c0.323,0,0.484,0.154,0.484,0.462v10.307c0,0.309-0.162,0.462-0.484,0.462h-1.85c-0.308,0-0.462-0.153-0.462-0.462v-0.726h-0.088
		c-0.162,0.396-0.448,0.693-0.859,0.892C52.002,16.092,51.569,16.191,51.114,16.191z"/>
	<path class="st0" d="M60.515,16.191h-1.872c-0.308,0-0.462-0.153-0.462-0.462V1.171c0-0.308,0.154-0.462,0.462-0.462h1.872
		c0.308,0,0.462,0.154,0.462,0.462v14.558C60.978,16.038,60.824,16.191,60.515,16.191z M64.612,4.959h2.137
		c0.176,0,0.293,0.052,0.352,0.154c0.058,0.103,0.036,0.235-0.066,0.396l-2.929,4.824v0.088l3.061,5.22
		c0.088,0.147,0.095,0.276,0.022,0.385c-0.074,0.11-0.206,0.165-0.396,0.165h-1.894c-0.25,0-0.429-0.029-0.54-0.088
		c-0.11-0.059-0.224-0.183-0.341-0.374l-2.797-4.912c-0.132-0.235-0.132-0.476,0-0.726L63.863,5.4
		C64.025,5.106,64.274,4.959,64.612,4.959z"/>
	<path class="st0" d="M73.003,16.191h-0.726c-1.131,0-1.986-0.308-2.566-0.925c-0.58-0.617-0.87-1.505-0.87-2.665v-7.18
		c0-0.308,0.154-0.462,0.462-0.462h1.872c0.308,0,0.462,0.154,0.462,0.462v7.048c0,0.47,0.099,0.804,0.297,1.002
		c0.198,0.198,0.525,0.297,0.98,0.297h0.815c1.013,0,1.52-0.557,1.52-1.674V5.422c0-0.308,0.154-0.462,0.462-0.462h1.85
		c0.323,0,0.484,0.154,0.484,0.462v10.307c0,0.309-0.162,0.462-0.484,0.462h-1.85c-0.308,0-0.462-0.153-0.462-0.462v-0.726h-0.088
		c-0.162,0.396-0.448,0.693-0.859,0.892C73.892,16.092,73.458,16.191,73.003,16.191z"/>
	<path class="st0" d="M82.353,16.191h-1.872c-0.308,0-0.462-0.153-0.462-0.462V5.422c0-0.308,0.154-0.462,0.462-0.462h1.872
		c0.308,0,0.462,0.154,0.462,0.462v0.726h0.088c0.323-0.793,1.043-1.189,2.159-1.189h0.705c2.305,0,3.457,1.197,3.457,3.59v7.18
		c0,0.309-0.161,0.462-0.484,0.462h-1.85c-0.308,0-0.463-0.153-0.463-0.462V8.681c0-0.469-0.099-0.804-0.297-1.002
		c-0.198-0.198-0.532-0.297-1.002-0.297h-0.793c-1.013,0-1.52,0.558-1.52,1.674v6.673C82.815,16.038,82.661,16.191,82.353,16.191z"
		/>
	<path class="st0" d="M95.006,4.959h1.762c0.176,0,0.297,0.033,0.363,0.099c0.066,0.066,0.099,0.18,0.099,0.342v1.519
		c0,0.308-0.154,0.462-0.462,0.462h-1.762c-0.161,0-0.242,0.081-0.242,0.242v8.104c0,0.309-0.162,0.462-0.484,0.462h-1.85
		c-0.308,0-0.462-0.153-0.462-0.462V7.624c0-0.161-0.088-0.242-0.264-0.242h-1.013c-0.308,0-0.462-0.154-0.462-0.462V5.4
		c0-0.177,0.033-0.294,0.099-0.353c0.066-0.059,0.187-0.088,0.363-0.088h1.013c0.176,0,0.264-0.08,0.264-0.242V4.298
		c0-1.159,0.305-2.048,0.914-2.665c0.609-0.617,1.494-0.925,2.654-0.925h1.255c0.176,0,0.293,0.033,0.352,0.099
		c0.059,0.066,0.088,0.181,0.088,0.342v1.519c0,0.308-0.147,0.462-0.44,0.462h-0.815c-0.47,0-0.789,0.1-0.958,0.297
		c-0.169,0.198-0.253,0.533-0.253,1.002v0.286C94.764,4.879,94.844,4.959,95.006,4.959z"/>
	<path class="st0" d="M99.655,7.382h-0.881c-0.176,0-0.297-0.029-0.363-0.088s-0.099-0.176-0.099-0.353V5.422
		c0-0.308,0.154-0.462,0.462-0.462h0.881c0.161,0,0.242-0.08,0.242-0.242V2.625c0-0.308,0.161-0.462,0.485-0.462h1.85
		c0.308,0,0.462,0.154,0.462,0.462v2.092c0,0.162,0.088,0.242,0.264,0.242h1.718c0.308,0,0.463,0.154,0.463,0.462v1.519
		c0,0.162-0.033,0.276-0.099,0.342c-0.066,0.066-0.187,0.099-0.364,0.099h-1.718c-0.176,0-0.264,0.081-0.264,0.242v4.868
		c0,0.455,0.103,0.781,0.308,0.98c0.205,0.198,0.543,0.297,1.013,0.297h0.881c0.308,0,0.462,0.154,0.462,0.462v1.52
		c0,0.161-0.033,0.275-0.099,0.341c-0.066,0.066-0.187,0.099-0.363,0.099h-1.343c-1.16,0-2.059-0.308-2.698-0.925
		c-0.638-0.617-0.958-1.498-0.958-2.643v-5C99.897,7.463,99.816,7.382,99.655,7.382z"/>
	<path class="st0" d="M111.658,16.191h-4.185c-0.294,0-0.44-0.153-0.44-0.462v-1.41c0-0.161,0.029-0.275,0.088-0.341
		c0.059-0.066,0.176-0.099,0.352-0.099h3.678c0.719,0,1.079-0.22,1.079-0.661v-0.11c0-0.352-0.301-0.689-0.903-1.013l-2.18-1.211
		c-0.749-0.381-1.3-0.793-1.652-1.234c-0.352-0.44-0.528-1.005-0.528-1.695c0-1.027,0.271-1.784,0.815-2.269
		c0.543-0.484,1.395-0.726,2.555-0.726h3.678c0.293,0,0.44,0.154,0.44,0.462v1.431c0,0.162-0.03,0.276-0.088,0.342
		c-0.059,0.066-0.176,0.099-0.352,0.099h-3.061c-0.72,0-1.079,0.184-1.079,0.55v0.11c0,0.323,0.316,0.653,0.947,0.991l2.224,1.321
		c0.764,0.412,1.3,0.834,1.608,1.267c0.308,0.433,0.462,1.002,0.462,1.706C115.115,15.208,113.962,16.191,111.658,16.191z"/>
	<path class="st0" d="M118.9,16.191h-1.872c-0.308,0-0.462-0.153-0.462-0.462V2.493c0-0.309,0.154-0.462,0.462-0.462h5.373
		c1.145,0,2.033,0.312,2.665,0.936c0.631,0.625,0.947,1.508,0.947,2.654v2.114c0,1.146-0.316,2.031-0.947,2.654
		c-0.632,0.625-1.52,0.937-2.665,0.937h-2.775c-0.176,0-0.264,0.08-0.264,0.241v4.163C119.362,16.038,119.208,16.191,118.9,16.191z
		 M119.604,8.88h2.335c0.47,0,0.8-0.099,0.991-0.297c0.191-0.198,0.286-0.525,0.286-0.981v-1.85c0-0.47-0.096-0.804-0.286-1.002
		c-0.191-0.198-0.522-0.297-0.991-0.297h-2.335c-0.162,0-0.242,0.081-0.242,0.242v3.942C119.362,8.799,119.442,8.88,119.604,8.88z"
		/>
	<path class="st0" d="M127.47,3.066V1.15c0-0.294,0.147-0.441,0.44-0.441h1.916c0.294,0,0.44,0.14,0.44,0.418v1.939
		c0,0.293-0.147,0.44-0.44,0.44h-1.916C127.617,3.506,127.47,3.359,127.47,3.066z M127.47,15.729V5.422
		c0-0.308,0.147-0.462,0.44-0.462h1.894c0.308,0,0.462,0.154,0.462,0.462v10.307c0,0.192-0.033,0.316-0.099,0.374
		c-0.066,0.059-0.18,0.088-0.342,0.088h-1.894C127.624,16.191,127.47,16.038,127.47,15.729z"/>
	<path class="st0" d="M134.588,16.191h-1.872c-0.308,0-0.463-0.153-0.463-0.462V1.171c0-0.308,0.154-0.462,0.463-0.462h1.872
		c0.308,0,0.462,0.154,0.462,0.462v14.558C135.05,16.038,134.896,16.191,134.588,16.191z"/>
	<path class="st0" d="M142.3,16.191h-1.96c-1.16,0-2.056-0.308-2.687-0.925c-0.632-0.617-0.947-1.505-0.947-2.665V8.549
		c0-1.159,0.315-2.048,0.947-2.665c0.631-0.617,1.527-0.925,2.687-0.925h1.96c1.145,0,2.037,0.312,2.676,0.936
		c0.639,0.625,0.958,1.509,0.958,2.654v4.052c0,1.146-0.319,2.031-0.958,2.654C144.336,15.879,143.445,16.191,142.3,16.191z
		 M140.758,13.791h1.123c0.47,0,0.804-0.096,1.002-0.286c0.198-0.191,0.297-0.521,0.297-0.991V8.637c0-0.469-0.099-0.8-0.297-0.991
		c-0.198-0.191-0.532-0.285-1.002-0.285h-1.123c-0.47,0-0.801,0.095-0.991,0.285c-0.191,0.192-0.286,0.522-0.286,0.991v3.876
		c0,0.47,0.095,0.801,0.286,0.991C139.957,13.695,140.288,13.791,140.758,13.791z"/>
	<path class="st0" d="M147.979,7.382h-0.881c-0.176,0-0.297-0.029-0.363-0.088c-0.066-0.059-0.099-0.176-0.099-0.353V5.422
		c0-0.308,0.154-0.462,0.462-0.462h0.881c0.161,0,0.242-0.08,0.242-0.242V2.625c0-0.308,0.161-0.462,0.485-0.462h1.85
		c0.308,0,0.462,0.154,0.462,0.462v2.092c0,0.162,0.088,0.242,0.264,0.242H153c0.308,0,0.463,0.154,0.463,0.462v1.519
		c0,0.162-0.033,0.276-0.099,0.342c-0.066,0.066-0.187,0.099-0.364,0.099h-1.718c-0.176,0-0.264,0.081-0.264,0.242v4.868
		c0,0.455,0.103,0.781,0.308,0.98c0.205,0.198,0.543,0.297,1.013,0.297h0.881c0.308,0,0.462,0.154,0.462,0.462v1.52
		c0,0.161-0.033,0.275-0.099,0.341c-0.066,0.066-0.187,0.099-0.363,0.099h-1.343c-1.16,0-2.059-0.308-2.698-0.925
		c-0.638-0.617-0.958-1.498-0.958-2.643v-5C148.221,7.463,148.14,7.382,147.979,7.382z"/>
	<path class="st0" d="M163.445,16.191h-4.867c-1.16,0-2.056-0.308-2.687-0.925c-0.632-0.617-0.947-1.505-0.947-2.665V8.549
		c0-1.159,0.315-2.048,0.947-2.665c0.631-0.617,1.527-0.925,2.687-0.925h1.74c1.16,0,2.055,0.308,2.687,0.925
		c0.631,0.617,0.947,1.506,0.947,2.665v2.797c0,0.308-0.154,0.462-0.462,0.462h-5.528c-0.176,0-0.264,0.081-0.264,0.242v0.485
		c0,0.455,0.099,0.781,0.297,0.98c0.198,0.198,0.532,0.297,1.002,0.297h4.449c0.308,0,0.462,0.162,0.462,0.485v1.454
		c0,0.161-0.033,0.275-0.099,0.341C163.742,16.158,163.621,16.191,163.445,16.191z M157.961,9.936h2.995
		c0.161,0,0.242-0.08,0.242-0.242V8.637c0-0.469-0.095-0.8-0.286-0.991c-0.191-0.191-0.522-0.285-0.991-0.285h-0.925
		c-0.47,0-0.801,0.095-0.991,0.285c-0.191,0.192-0.286,0.522-0.286,0.991v1.057C157.719,9.856,157.799,9.936,157.961,9.936z"/>
	<path class="st0" d="M167.979,16.191h-1.872c-0.308,0-0.462-0.153-0.462-0.462V5.422c0-0.308,0.154-0.462,0.462-0.462h1.872
		c0.308,0,0.462,0.154,0.462,0.462v0.726h0.088c0.323-0.793,1.043-1.189,2.159-1.189h0.705c2.305,0,3.457,1.197,3.457,3.59v7.18
		c0,0.309-0.161,0.462-0.484,0.462h-1.85c-0.308,0-0.463-0.153-0.463-0.462V8.681c0-0.469-0.099-0.804-0.297-1.002
		c-0.198-0.198-0.532-0.297-1.002-0.297h-0.793c-1.013,0-1.52,0.558-1.52,1.674v6.673C168.441,16.038,168.287,16.191,167.979,16.191
		z"/>
</g>
<g>
	<path class="st1" d="M6.237,39.553h-1.86c-0.325,0-0.487-0.154-0.487-0.465V27.993c0-0.163-0.081-0.244-0.244-0.244H1.122
		c-0.31,0-0.465-0.155-0.465-0.465v-1.506c0-0.311,0.155-0.465,0.465-0.465h8.371c0.31,0,0.465,0.154,0.465,0.465v1.506
		c0,0.31-0.155,0.465-0.465,0.465H6.968c-0.177,0-0.266,0.081-0.266,0.244v11.095C6.702,39.399,6.547,39.553,6.237,39.553z"/>
	<path class="st1" d="M15.494,39.553h-0.731c-1.137,0-1.997-0.31-2.58-0.93c-0.583-0.62-0.875-1.514-0.875-2.68v-7.22
		c0-0.311,0.155-0.465,0.465-0.465h1.882c0.31,0,0.465,0.154,0.465,0.465v7.087c0,0.473,0.1,0.808,0.299,1.008
		c0.199,0.199,0.528,0.299,0.985,0.299h0.82c1.019,0,1.528-0.562,1.528-1.684v-6.71c0-0.311,0.155-0.465,0.465-0.465h1.86
		c0.325,0,0.487,0.154,0.487,0.465v10.364c0,0.311-0.163,0.465-0.487,0.465h-1.86c-0.31,0-0.465-0.154-0.465-0.465v-0.73h-0.088
		c-0.163,0.398-0.451,0.697-0.864,0.896C16.387,39.453,15.952,39.553,15.494,39.553z M12.526,26.376v-1.949
		c0-0.295,0.14-0.442,0.421-0.442h1.771c0.281,0,0.421,0.141,0.421,0.421v1.971c0,0.311-0.14,0.465-0.421,0.465h-1.771
		C12.667,26.841,12.526,26.687,12.526,26.376z M16.734,26.376v-1.949c0-0.295,0.14-0.442,0.421-0.442h1.771
		c0.28,0,0.421,0.141,0.421,0.421v1.971c0,0.311-0.141,0.465-0.421,0.465h-1.771C16.875,26.841,16.734,26.687,16.734,26.376z"/>
	<path class="st1" d="M23.002,39.088V24.449c0-0.31,0.155-0.465,0.465-0.465h1.882c0.31,0,0.465,0.155,0.465,0.465v4.983h0.088
		c0.162-0.399,0.45-0.701,0.864-0.908c0.413-0.207,0.849-0.311,1.307-0.311h0.708c1.167,0,2.067,0.311,2.702,0.931
		c0.634,0.62,0.952,1.514,0.952,2.68v4.119c0,1.166-0.318,2.06-0.952,2.68c-0.635,0.62-1.536,0.93-2.702,0.93h-5.315
		C23.157,39.553,23.002,39.399,23.002,39.088z M26.058,37.117h2.259c0.472,0,0.808-0.1,1.007-0.299c0.2-0.2,0.299-0.535,0.299-1.008
		v-3.854c0-0.473-0.1-0.809-0.299-1.008c-0.199-0.199-0.535-0.299-1.007-0.299h-0.975c-1.019,0-1.528,0.562-1.528,1.683v4.54
		C25.814,37.036,25.895,37.117,26.058,37.117z"/>
	<path class="st1" d="M34.761,26.354v-1.927c0-0.295,0.147-0.442,0.443-0.442h1.927c0.295,0,0.443,0.141,0.443,0.421v1.948
		c0,0.296-0.147,0.443-0.443,0.443h-1.927C34.908,26.797,34.761,26.65,34.761,26.354z M34.761,39.088V28.724
		c0-0.311,0.147-0.465,0.443-0.465h1.905c0.31,0,0.465,0.154,0.465,0.465v10.364c0,0.192-0.033,0.317-0.1,0.377
		c-0.066,0.059-0.181,0.088-0.343,0.088h-1.904C34.916,39.553,34.761,39.399,34.761,39.088z"/>
	<path class="st1" d="M42.467,39.553h-1.882c-0.31,0-0.465-0.154-0.465-0.465V28.724c0-0.311,0.155-0.465,0.465-0.465h1.882
		c0.31,0,0.465,0.154,0.465,0.465v0.73h0.088c0.325-0.797,1.048-1.195,2.17-1.195H45.9c2.318,0,3.477,1.203,3.477,3.609v7.22
		c0,0.311-0.163,0.465-0.487,0.465h-1.86c-0.31,0-0.465-0.154-0.465-0.465v-7.087c0-0.472-0.1-0.809-0.299-1.008
		c-0.2-0.199-0.536-0.299-1.008-0.299H44.46c-1.019,0-1.528,0.562-1.528,1.684v6.71C42.933,39.399,42.777,39.553,42.467,39.553z"/>
	<path class="st1" d="M55.688,39.044h-0.73c-1.137,0-1.997-0.311-2.58-0.931c-0.583-0.62-0.875-1.513-0.875-2.68v-3.565
		c0-1.166,0.317-2.06,0.953-2.68c0.634-0.62,1.535-0.93,2.702-0.93h5.116c0.325,0,0.487,0.154,0.487,0.465v10.918
		c0,1.151-0.321,2.037-0.963,2.657s-1.539,0.931-2.691,0.931h-4.252c-0.177,0-0.299-0.033-0.365-0.1s-0.1-0.182-0.1-0.344v-1.528
		c0-0.31,0.155-0.465,0.465-0.465h3.787c0.472,0,0.808-0.1,1.007-0.299c0.2-0.199,0.299-0.528,0.299-0.985v-1.684h-0.089
		c-0.163,0.399-0.45,0.702-0.864,0.908C56.582,38.941,56.146,39.044,55.688,39.044z M57.948,34.925v-3.986
		c0-0.163-0.089-0.244-0.266-0.244H55.6c-0.473,0-0.805,0.1-0.997,0.299s-0.288,0.536-0.288,1.008v3.3
		c0,0.473,0.096,0.805,0.288,0.997c0.192,0.191,0.524,0.287,0.997,0.287h0.819C57.438,36.585,57.948,36.032,57.948,34.925z"/>
	<path class="st1" d="M71.523,39.553h-4.894c-1.167,0-2.067-0.31-2.702-0.93s-0.952-1.514-0.952-2.68v-4.075
		c0-1.166,0.317-2.06,0.952-2.68s1.536-0.93,2.702-0.93h1.75c1.166,0,2.067,0.31,2.702,0.93s0.952,1.514,0.952,2.68v2.812
		c0,0.311-0.155,0.465-0.465,0.465h-5.559c-0.177,0-0.266,0.082-0.266,0.244v0.487c0,0.458,0.1,0.786,0.299,0.985
		c0.199,0.199,0.535,0.299,1.007,0.299h4.474c0.31,0,0.465,0.163,0.465,0.487v1.462c0,0.162-0.033,0.276-0.1,0.343
		C71.822,39.52,71.7,39.553,71.523,39.553z M66.009,33.264h3.012c0.162,0,0.244-0.081,0.244-0.244v-1.062
		c0-0.473-0.096-0.805-0.288-0.997c-0.192-0.191-0.524-0.287-0.997-0.287h-0.93c-0.473,0-0.805,0.096-0.997,0.287
		c-0.192,0.192-0.288,0.524-0.288,0.997v1.062C65.765,33.183,65.846,33.264,66.009,33.264z"/>
	<path class="st1" d="M76.483,39.553h-1.882c-0.31,0-0.465-0.154-0.465-0.465V28.724c0-0.311,0.155-0.465,0.465-0.465h1.882
		c0.31,0,0.465,0.154,0.465,0.465v0.73h0.088c0.325-0.797,1.048-1.195,2.17-1.195h0.708c2.318,0,3.477,1.203,3.477,3.609v7.22
		c0,0.311-0.163,0.465-0.487,0.465h-1.86c-0.31,0-0.465-0.154-0.465-0.465v-7.087c0-0.472-0.1-0.809-0.299-1.008
		c-0.2-0.199-0.536-0.299-1.008-0.299h-0.797c-1.019,0-1.528,0.562-1.528,1.684v6.71C76.949,39.399,76.793,39.553,76.483,39.553z"/>
	<path class="st1" d="M90.059,33.618h-4.207c-0.31,0-0.465-0.155-0.465-0.466v-1.307c0-0.324,0.155-0.486,0.465-0.486h4.207
		c0.311,0,0.466,0.162,0.466,0.486v1.307C90.524,33.463,90.369,33.618,90.059,33.618z"/>
	<path class="st1" d="M95.196,39.553h-1.882c-0.311,0-0.466-0.154-0.466-0.465v-13.31c0-0.311,0.155-0.465,0.466-0.465h5.271
		c1.151,0,2.052,0.317,2.701,0.952c0.65,0.635,0.975,1.527,0.975,2.68v1.728c0,1.668-0.657,2.775-1.971,3.321v0.089l2.369,4.938
		c0.134,0.354,0.008,0.531-0.376,0.531h-1.794c-0.266,0-0.458-0.029-0.576-0.088c-0.118-0.06-0.214-0.185-0.287-0.377l-2.215-4.783
		h-1.484c-0.177,0-0.266,0.081-0.266,0.243v4.54C95.661,39.399,95.507,39.553,95.196,39.553z M95.905,32.046h2.17
		c0.473,0,0.819-0.101,1.041-0.3s0.332-0.521,0.332-0.963v-1.728c0-0.457-0.11-0.79-0.332-0.996
		c-0.222-0.207-0.568-0.311-1.041-0.311h-2.17c-0.163,0-0.244,0.081-0.244,0.244v3.809C95.661,31.965,95.742,32.046,95.905,32.046z"
		/>
	<path class="st1" d="M113.068,39.553h-4.894c-1.167,0-2.067-0.31-2.702-0.93s-0.952-1.514-0.952-2.68v-4.075
		c0-1.166,0.317-2.06,0.952-2.68s1.535-0.93,2.702-0.93h1.749c1.166,0,2.067,0.31,2.702,0.93s0.952,1.514,0.952,2.68v2.812
		c0,0.311-0.155,0.465-0.465,0.465h-5.559c-0.178,0-0.267,0.082-0.267,0.244v0.487c0,0.458,0.1,0.786,0.3,0.985
		c0.199,0.199,0.534,0.299,1.007,0.299h4.474c0.311,0,0.466,0.163,0.466,0.487v1.462c0,0.162-0.033,0.276-0.101,0.343
		C113.367,39.52,113.246,39.553,113.068,39.553z M107.555,33.264h3.012c0.162,0,0.243-0.081,0.243-0.244v-1.062
		c0-0.473-0.096-0.805-0.288-0.997c-0.191-0.191-0.523-0.287-0.996-0.287h-0.931c-0.473,0-0.805,0.096-0.996,0.287
		c-0.192,0.192-0.288,0.524-0.288,0.997v1.062C107.311,33.183,107.392,33.264,107.555,33.264z"/>
	<path class="st1" d="M119.756,39.553h-0.73c-1.138,0-1.997-0.31-2.58-0.93c-0.584-0.62-0.875-1.514-0.875-2.68v-7.22
		c0-0.311,0.155-0.465,0.465-0.465h1.883c0.31,0,0.465,0.154,0.465,0.465v7.087c0,0.473,0.1,0.808,0.299,1.008
		c0.199,0.199,0.528,0.299,0.985,0.299h0.82c1.019,0,1.527-0.562,1.527-1.684v-6.71c0-0.311,0.155-0.465,0.466-0.465h1.859
		c0.325,0,0.487,0.154,0.487,0.465v10.364c0,0.311-0.162,0.465-0.487,0.465h-1.859c-0.311,0-0.466-0.154-0.466-0.465v-0.73h-0.088
		c-0.163,0.398-0.451,0.697-0.864,0.896S120.214,39.553,119.756,39.553z"/>
	<path class="st1" d="M127.507,30.694h-0.886c-0.177,0-0.299-0.029-0.365-0.089c-0.066-0.059-0.1-0.177-0.1-0.354v-1.528
		c0-0.311,0.155-0.465,0.465-0.465h0.886c0.163,0,0.244-0.081,0.244-0.244v-2.104c0-0.311,0.162-0.465,0.487-0.465h1.86
		c0.31,0,0.465,0.154,0.465,0.465v2.104c0,0.163,0.089,0.244,0.266,0.244h1.728c0.31,0,0.465,0.154,0.465,0.465v1.528
		c0,0.162-0.033,0.276-0.1,0.343s-0.188,0.1-0.365,0.1h-1.728c-0.177,0-0.266,0.081-0.266,0.244v4.894
		c0,0.458,0.104,0.786,0.31,0.986c0.207,0.199,0.547,0.299,1.02,0.299h0.886c0.31,0,0.465,0.154,0.465,0.465v1.528
		c0,0.162-0.033,0.276-0.1,0.343s-0.188,0.1-0.365,0.1h-1.352c-1.166,0-2.07-0.31-2.713-0.93c-0.642-0.62-0.963-1.506-0.963-2.658
		v-5.026C127.751,30.776,127.67,30.694,127.507,30.694z"/>
	<path class="st1" d="M137.539,39.553h-1.882c-0.311,0-0.466-0.154-0.466-0.465V24.449c0-0.31,0.155-0.465,0.466-0.465h1.882
		c0.311,0,0.465,0.155,0.465,0.465v14.639C138.004,39.399,137.85,39.553,137.539,39.553z"/>
	<path class="st1" d="M140.662,26.354v-1.927c0-0.295,0.147-0.442,0.442-0.442h1.927c0.296,0,0.443,0.141,0.443,0.421v1.948
		c0,0.296-0.147,0.443-0.443,0.443h-1.927C140.81,26.797,140.662,26.65,140.662,26.354z M140.662,39.088V28.724
		c0-0.311,0.147-0.465,0.442-0.465h1.905c0.31,0,0.465,0.154,0.465,0.465v10.364c0,0.192-0.033,0.317-0.1,0.377
		c-0.066,0.059-0.181,0.088-0.344,0.088h-1.904C140.817,39.553,140.662,39.399,140.662,39.088z"/>
	<path class="st1" d="M148.368,39.553h-1.882c-0.311,0-0.465-0.154-0.465-0.465V28.724c0-0.311,0.154-0.465,0.465-0.465h1.882
		c0.311,0,0.466,0.154,0.466,0.465v0.73h0.088c0.325-0.797,1.049-1.195,2.171-1.195h0.708c2.318,0,3.478,1.203,3.478,3.609v7.22
		c0,0.311-0.163,0.465-0.487,0.465h-1.86c-0.311,0-0.465-0.154-0.465-0.465v-7.087c0-0.472-0.1-0.809-0.299-1.008
		c-0.2-0.199-0.536-0.299-1.008-0.299h-0.798c-1.019,0-1.527,0.562-1.527,1.684v6.71C148.834,39.399,148.679,39.553,148.368,39.553z
		"/>
	<path class="st1" d="M161.59,39.044h-0.73c-1.138,0-1.997-0.311-2.58-0.931c-0.584-0.62-0.875-1.513-0.875-2.68v-3.565
		c0-1.166,0.317-2.06,0.952-2.68s1.535-0.93,2.702-0.93h5.115c0.325,0,0.487,0.154,0.487,0.465v10.918
		c0,1.151-0.321,2.037-0.963,2.657c-0.643,0.62-1.539,0.931-2.691,0.931h-4.252c-0.177,0-0.299-0.033-0.365-0.1
		s-0.1-0.182-0.1-0.344v-1.528c0-0.31,0.155-0.465,0.465-0.465h3.787c0.473,0,0.809-0.1,1.008-0.299s0.299-0.528,0.299-0.985v-1.684
		h-0.089c-0.162,0.399-0.45,0.702-0.863,0.908C162.483,38.941,162.047,39.044,161.59,39.044z M163.849,34.925v-3.986
		c0-0.163-0.089-0.244-0.266-0.244h-2.082c-0.473,0-0.805,0.1-0.996,0.299c-0.192,0.199-0.288,0.536-0.288,1.008v3.3
		c0,0.473,0.096,0.805,0.288,0.997c0.191,0.191,0.523,0.287,0.996,0.287h0.819C163.34,36.585,163.849,36.032,163.849,34.925z"/>
	<path class="st1" d="M177.424,39.553h-4.894c-1.167,0-2.067-0.31-2.702-0.93s-0.952-1.514-0.952-2.68v-4.075
		c0-1.166,0.317-2.06,0.952-2.68s1.535-0.93,2.702-0.93h1.749c1.166,0,2.067,0.31,2.702,0.93s0.952,1.514,0.952,2.68v2.812
		c0,0.311-0.155,0.465-0.465,0.465h-5.559c-0.178,0-0.267,0.082-0.267,0.244v0.487c0,0.458,0.1,0.786,0.3,0.985
		c0.199,0.199,0.534,0.299,1.007,0.299h4.474c0.311,0,0.466,0.163,0.466,0.487v1.462c0,0.162-0.033,0.276-0.101,0.343
		C177.723,39.52,177.602,39.553,177.424,39.553z M171.91,33.264h3.012c0.162,0,0.243-0.081,0.243-0.244v-1.062
		c0-0.473-0.096-0.805-0.288-0.997c-0.191-0.191-0.523-0.287-0.996-0.287h-0.931c-0.473,0-0.805,0.096-0.996,0.287
		c-0.192,0.192-0.288,0.524-0.288,0.997v1.062C171.666,33.183,171.747,33.264,171.91,33.264z"/>
	<path class="st1" d="M182.385,39.553h-1.883c-0.31,0-0.465-0.154-0.465-0.465V28.724c0-0.311,0.155-0.465,0.465-0.465h1.883
		c0.31,0,0.465,0.154,0.465,0.465v0.73h0.089c0.324-0.797,1.048-1.195,2.17-1.195h0.709c2.317,0,3.477,1.203,3.477,3.609v7.22
		c0,0.311-0.162,0.465-0.487,0.465h-1.86c-0.31,0-0.465-0.154-0.465-0.465v-7.087c0-0.472-0.1-0.809-0.299-1.008
		s-0.535-0.299-1.008-0.299h-0.797c-1.019,0-1.528,0.562-1.528,1.684v6.71C182.85,39.399,182.694,39.553,182.385,39.553z"/>
</g>
</svg>
