<?xml version="1.0" encoding="utf-8"?>
<!-- Generator: Adobe Illustrator 28.0.0, SVG Export Plug-In . SVG Version: 6.00 Build 0)  -->
<svg version="1.1" id="Ebene_1" xmlns="http://www.w3.org/2000/svg" xmlns:xlink="http://www.w3.org/1999/xlink" x="0px" y="0px"
	 viewBox="0 0 190.25 43.937" style="enable-background:new 0 0 190.25 43.937;" xml:space="preserve">
<style type="text/css">
	.st0{fill:#003DA4;}
	.st1{fill:#80C3F2;}
</style>
<g>
	<path class="st0" d="M7.48,16.191H4.507c-0.318,0-0.506-0.154-0.567-0.462L0.424,2.536C0.318,2.198,0.469,2.03,0.878,2.03H3.01
		c0.302,0,0.483,0.154,0.544,0.462l2.382,10.836h0.091L8.409,2.492C8.469,2.184,8.651,2.03,8.954,2.03h2.132
		c0.377,0,0.529,0.169,0.454,0.506L8.024,15.729C7.947,16.037,7.766,16.191,7.48,16.191z"/>
	<path class="st0" d="M12.909,15.729V2.492c0-0.308,0.159-0.462,0.477-0.462h5.603c1.179,0,2.099,0.312,2.756,0.936
		c0.658,0.624,0.988,1.509,0.988,2.653v6.982c0,1.145-0.329,2.03-0.988,2.653c-0.657,0.625-1.577,0.936-2.756,0.936h-5.603
		C13.069,16.191,12.909,16.037,12.909,15.729z M16.04,13.768h2.473c0.483,0,0.828-0.099,1.032-0.297
		c0.204-0.198,0.307-0.533,0.307-1.002V5.751c0-0.47-0.103-0.803-0.307-1.001c-0.203-0.198-0.548-0.298-1.032-0.298H16.04
		c-0.166,0-0.25,0.081-0.25,0.242v8.832C15.79,13.688,15.874,13.768,16.04,13.768z"/>
	<path class="st0" d="M27.592,2.492v13.237c0,0.308-0.159,0.462-0.477,0.462h-1.928c-0.318,0-0.476-0.154-0.476-0.462V2.492
		c0-0.308,0.158-0.462,0.476-0.462h1.928C27.433,2.03,27.592,2.184,27.592,2.492z"/>
	<path class="st0" d="M31.975,16.191h-1.929c-0.317,0-0.476-0.154-0.476-0.462V5.421c0-0.308,0.159-0.462,0.476-0.462h1.929
		c0.318,0,0.476,0.154,0.476,0.462v0.728h0.091c0.332-0.794,1.074-1.19,2.223-1.19h0.725c2.375,0,3.562,1.197,3.562,3.59v7.18
		c0,0.308-0.167,0.462-0.499,0.462h-1.906c-0.318,0-0.476-0.154-0.476-0.462V8.681c0-0.47-0.103-0.803-0.306-1.001
		c-0.204-0.198-0.549-0.298-1.033-0.298h-0.817c-1.043,0-1.565,0.558-1.565,1.674v6.673C32.451,16.037,32.292,16.191,31.975,16.191z
		"/>
	<path class="st0" d="M40.896,3.065V1.149c0-0.294,0.151-0.44,0.454-0.44h1.973c0.303,0,0.454,0.139,0.454,0.418v1.938
		c0,0.294-0.151,0.44-0.454,0.44H41.35C41.047,3.506,40.896,3.359,40.896,3.065z M40.896,15.729V5.421
		c0-0.308,0.151-0.462,0.454-0.462h1.951c0.318,0,0.476,0.154,0.476,0.462v10.308c0,0.191-0.034,0.316-0.102,0.374
		c-0.068,0.059-0.186,0.088-0.352,0.088h-1.95C41.056,16.191,40.896,16.037,40.896,15.729z"/>
	<path class="st0" d="M50.336,10.289h-4.31c-0.318,0-0.476-0.154-0.476-0.462v-1.3c0-0.322,0.158-0.484,0.476-0.484h4.31
		c0.318,0,0.476,0.162,0.476,0.484v1.3C50.812,10.135,50.654,10.289,50.336,10.289z"/>
	<path class="st0" d="M58.739,16.191h-2.473c-1.194,0-2.117-0.308-2.768-0.925c-0.65-0.617-0.975-1.505-0.975-2.665V5.619
		c0-1.16,0.325-2.047,0.975-2.664c0.651-0.617,1.574-0.926,2.768-0.926h2.473c1.179,0,2.098,0.312,2.756,0.936
		c0.657,0.624,0.987,1.509,0.987,2.653v1.036c0,0.323-0.167,0.484-0.499,0.484h-1.906c-0.318,0-0.476-0.161-0.476-0.484V5.751
		c0-0.47-0.102-0.803-0.306-1.001c-0.204-0.198-0.548-0.298-1.033-0.298H56.72c-0.469,0-0.805,0.1-1.01,0.298
		c-0.204,0.198-0.306,0.532-0.306,1.001v6.718c0,0.47,0.102,0.804,0.306,1.002c0.204,0.198,0.541,0.297,1.01,0.297h1.542
		c0.484,0,0.828-0.099,1.033-0.297c0.204-0.198,0.306-0.533,0.306-1.002v-0.904c0-0.322,0.158-0.484,0.476-0.484h1.906
		c0.332,0,0.499,0.162,0.499,0.484v1.036c0,1.145-0.329,2.03-0.987,2.653C60.837,15.88,59.918,16.191,58.739,16.191z"/>
	<path class="st0" d="M66.699,16.191h-1.928c-0.318,0-0.477-0.154-0.477-0.462V1.171c0-0.308,0.159-0.462,0.477-0.462h1.928
		c0.318,0,0.476,0.154,0.476,0.462v14.558C67.175,16.037,67.016,16.191,66.699,16.191z"/>
	<path class="st0" d="M73.409,16.191H72.66c-1.165,0-2.045-0.308-2.642-0.925c-0.598-0.617-0.896-1.505-0.896-2.665v-7.18
		c0-0.308,0.158-0.462,0.476-0.462h1.928c0.318,0,0.477,0.154,0.477,0.462v7.048c0,0.47,0.102,0.804,0.306,1.002
		c0.204,0.198,0.541,0.297,1.01,0.297h0.839c1.044,0,1.565-0.558,1.565-1.673V5.421c0-0.308,0.159-0.462,0.477-0.462h1.905
		c0.333,0,0.499,0.154,0.499,0.462v10.308c0,0.308-0.166,0.462-0.499,0.462H76.2c-0.318,0-0.477-0.154-0.477-0.462v-0.727h-0.09
		c-0.167,0.396-0.461,0.693-0.885,0.891C74.324,16.092,73.878,16.191,73.409,16.191z"/>
	<path class="st0" d="M80.706,15.729V1.171c0-0.308,0.159-0.462,0.476-0.462h1.929c0.318,0,0.476,0.154,0.476,0.462v4.956h0.091
		c0.166-0.397,0.46-0.697,0.884-0.904c0.424-0.205,0.87-0.308,1.339-0.308h0.725c1.195,0,2.118,0.308,2.768,0.926
		c0.65,0.616,0.976,1.504,0.976,2.664v4.097c0,1.16-0.326,2.047-0.976,2.665c-0.65,0.616-1.573,0.925-2.768,0.925h-5.444
		C80.865,16.191,80.706,16.037,80.706,15.729z M83.837,13.768h2.314c0.484,0,0.828-0.099,1.033-0.297
		c0.203-0.198,0.306-0.533,0.306-1.002V8.637c0-0.47-0.103-0.803-0.306-1.001c-0.204-0.198-0.548-0.298-1.033-0.298h-0.998
		c-1.043,0-1.565,0.558-1.565,1.674v4.514C83.587,13.688,83.67,13.768,83.837,13.768z"/>
</g>
<g>
	<path class="st1" d="M5.847,39.553h-1.86c-0.325,0-0.487-0.155-0.487-0.465V27.992c0-0.162-0.081-0.243-0.244-0.243H0.731
		c-0.31,0-0.465-0.155-0.465-0.466v-1.506c0-0.31,0.155-0.465,0.465-0.465h8.371c0.31,0,0.465,0.155,0.465,0.465v1.506
		c0,0.311-0.155,0.466-0.465,0.466H6.578c-0.177,0-0.266,0.081-0.266,0.243v11.096C6.312,39.397,6.157,39.553,5.847,39.553z"/>
	<path class="st1" d="M15.104,39.553h-0.731c-1.137,0-1.997-0.311-2.58-0.931c-0.583-0.62-0.875-1.513-0.875-2.68v-7.22
		c0-0.31,0.155-0.465,0.465-0.465h1.882c0.31,0,0.465,0.155,0.465,0.465v7.087c0,0.473,0.1,0.809,0.299,1.008
		s0.528,0.299,0.985,0.299h0.82c1.019,0,1.528-0.561,1.528-1.683v-6.711c0-0.31,0.155-0.465,0.465-0.465h1.86
		c0.325,0,0.487,0.155,0.487,0.465v10.365c0,0.31-0.163,0.465-0.487,0.465h-1.86c-0.31,0-0.465-0.155-0.465-0.465v-0.731h-0.088
		c-0.163,0.398-0.451,0.698-0.864,0.897C15.997,39.453,15.561,39.553,15.104,39.553z M12.136,26.376v-1.949
		c0-0.295,0.14-0.443,0.421-0.443h1.771c0.281,0,0.421,0.141,0.421,0.421v1.972c0,0.31-0.14,0.465-0.421,0.465h-1.771
		C12.276,26.841,12.136,26.685,12.136,26.376z M16.344,26.376v-1.949c0-0.295,0.14-0.443,0.421-0.443h1.771
		c0.28,0,0.421,0.141,0.421,0.421v1.972c0,0.31-0.141,0.465-0.421,0.465h-1.771C16.484,26.841,16.344,26.685,16.344,26.376z"/>
	<path class="st1" d="M22.611,39.088V24.449c0-0.311,0.155-0.466,0.465-0.466h1.882c0.31,0,0.465,0.155,0.465,0.466v4.982h0.088
		c0.162-0.398,0.45-0.701,0.864-0.908c0.413-0.206,0.849-0.31,1.307-0.31h0.708c1.167,0,2.067,0.31,2.702,0.93
		c0.634,0.62,0.952,1.514,0.952,2.68v4.119c0,1.167-0.318,2.06-0.952,2.68c-0.635,0.62-1.536,0.931-2.702,0.931h-5.315
		C22.766,39.553,22.611,39.397,22.611,39.088z M25.667,37.116h2.259c0.472,0,0.808-0.1,1.007-0.299
		c0.2-0.199,0.299-0.535,0.299-1.008v-3.854c0-0.472-0.1-0.808-0.299-1.008c-0.199-0.199-0.535-0.299-1.007-0.299h-0.975
		c-1.019,0-1.528,0.562-1.528,1.684v4.54C25.424,37.035,25.504,37.116,25.667,37.116z"/>
	<path class="st1" d="M34.37,26.353v-1.927c0-0.295,0.147-0.443,0.443-0.443h1.927c0.295,0,0.443,0.141,0.443,0.421v1.949
		c0,0.295-0.147,0.442-0.443,0.442h-1.927C34.518,26.796,34.37,26.648,34.37,26.353z M34.37,39.088V28.722
		c0-0.31,0.147-0.465,0.443-0.465h1.905c0.31,0,0.465,0.155,0.465,0.465v10.365c0,0.191-0.033,0.317-0.1,0.376
		c-0.066,0.06-0.181,0.089-0.343,0.089h-1.904C34.525,39.553,34.37,39.397,34.37,39.088z"/>
	<path class="st1" d="M42.077,39.553h-1.882c-0.31,0-0.465-0.155-0.465-0.465V28.722c0-0.31,0.155-0.465,0.465-0.465h1.882
		c0.31,0,0.465,0.155,0.465,0.465v0.731h0.088c0.325-0.798,1.048-1.196,2.17-1.196h0.708c2.318,0,3.477,1.204,3.477,3.61v7.22
		c0,0.31-0.163,0.465-0.487,0.465h-1.86c-0.31,0-0.465-0.155-0.465-0.465v-7.087c0-0.473-0.1-0.809-0.299-1.008
		c-0.2-0.199-0.536-0.299-1.008-0.299H44.07c-1.019,0-1.528,0.561-1.528,1.683v6.711C42.542,39.397,42.387,39.553,42.077,39.553z"/>
	<path class="st1" d="M55.298,39.043h-0.73c-1.137,0-1.997-0.31-2.58-0.93c-0.583-0.62-0.875-1.514-0.875-2.68v-3.565
		c0-1.167,0.317-2.06,0.953-2.68c0.634-0.62,1.535-0.931,2.702-0.931h5.116c0.324,0,0.487,0.155,0.487,0.465V39.64
		c0,1.152-0.321,2.038-0.964,2.658c-0.642,0.62-1.539,0.93-2.691,0.93h-4.252c-0.177,0-0.299-0.033-0.365-0.1s-0.1-0.181-0.1-0.343
		v-1.528c0-0.311,0.155-0.465,0.465-0.465h3.787c0.472,0,0.808-0.1,1.007-0.299c0.2-0.2,0.299-0.528,0.299-0.986v-1.683h-0.089
		c-0.163,0.398-0.45,0.701-0.864,0.908C56.191,38.94,55.755,39.043,55.298,39.043z M57.557,34.924v-3.986
		c0-0.162-0.089-0.243-0.266-0.243h-2.082c-0.473,0-0.805,0.1-0.997,0.299s-0.288,0.535-0.288,1.008v3.3
		c0,0.473,0.096,0.805,0.288,0.996c0.192,0.192,0.524,0.288,0.997,0.288h0.819C57.048,36.585,57.557,36.031,57.557,34.924z"/>
	<path class="st1" d="M71.133,39.553h-4.895c-1.166,0-2.067-0.311-2.702-0.931s-0.952-1.513-0.952-2.68v-4.074
		c0-1.167,0.317-2.06,0.952-2.68s1.536-0.931,2.702-0.931h1.75c1.166,0,2.066,0.311,2.701,0.931s0.952,1.513,0.952,2.68v2.812
		c0,0.31-0.154,0.465-0.465,0.465h-5.559c-0.177,0-0.266,0.081-0.266,0.243v0.487c0,0.458,0.1,0.786,0.299,0.985
		c0.199,0.2,0.535,0.3,1.008,0.3h4.474c0.31,0,0.465,0.162,0.465,0.486v1.462c0,0.163-0.033,0.277-0.1,0.344
		S71.31,39.553,71.133,39.553z M65.618,33.262h3.012c0.162,0,0.244-0.081,0.244-0.243v-1.063c0-0.472-0.097-0.805-0.288-0.996
		c-0.192-0.191-0.524-0.288-0.997-0.288h-0.93c-0.473,0-0.805,0.097-0.997,0.288c-0.191,0.191-0.287,0.524-0.287,0.996v1.063
		C65.375,33.181,65.456,33.262,65.618,33.262z"/>
	<path class="st1" d="M76.093,39.553h-1.882c-0.311,0-0.465-0.155-0.465-0.465V28.722c0-0.31,0.154-0.465,0.465-0.465h1.882
		c0.311,0,0.466,0.155,0.466,0.465v0.731h0.088c0.325-0.798,1.049-1.196,2.171-1.196h0.708c2.318,0,3.478,1.204,3.478,3.61v7.22
		c0,0.31-0.163,0.465-0.487,0.465h-1.86c-0.311,0-0.465-0.155-0.465-0.465v-7.087c0-0.473-0.1-0.809-0.299-1.008
		c-0.2-0.199-0.536-0.299-1.008-0.299h-0.798c-1.019,0-1.527,0.561-1.527,1.683v6.711C76.559,39.397,76.403,39.553,76.093,39.553z"
		/>
	<path class="st1" d="M89.669,33.617h-4.208c-0.31,0-0.465-0.155-0.465-0.465v-1.307c0-0.324,0.155-0.487,0.465-0.487h4.208
		c0.31,0,0.465,0.163,0.465,0.487v1.307C90.134,33.462,89.979,33.617,89.669,33.617z"/>
	<path class="st1" d="M94.807,39.553h-1.883c-0.31,0-0.465-0.155-0.465-0.465V25.777c0-0.31,0.155-0.465,0.465-0.465h5.271
		c1.152,0,2.053,0.317,2.702,0.952s0.975,1.528,0.975,2.68v1.728c0,1.669-0.657,2.776-1.972,3.322v0.088l2.37,4.938
		c0.133,0.354,0.007,0.532-0.377,0.532H100.1c-0.267,0-0.458-0.029-0.576-0.089c-0.118-0.059-0.214-0.185-0.288-0.376l-2.215-4.784
		h-1.483c-0.177,0-0.266,0.081-0.266,0.244v4.54C95.271,39.397,95.116,39.553,94.807,39.553z M95.515,32.045h2.171
		c0.472,0,0.819-0.1,1.041-0.299c0.221-0.199,0.332-0.521,0.332-0.964v-1.727c0-0.458-0.111-0.79-0.332-0.997
		c-0.222-0.206-0.569-0.31-1.041-0.31h-2.171c-0.162,0-0.243,0.081-0.243,0.243v3.81C95.271,31.964,95.353,32.045,95.515,32.045z"/>
	<path class="st1" d="M112.679,39.553h-4.895c-1.166,0-2.067-0.311-2.702-0.931s-0.952-1.513-0.952-2.68v-4.074
		c0-1.167,0.317-2.06,0.952-2.68s1.536-0.931,2.702-0.931h1.75c1.166,0,2.066,0.311,2.701,0.931s0.952,1.513,0.952,2.68v2.812
		c0,0.31-0.154,0.465-0.465,0.465h-5.559c-0.177,0-0.266,0.081-0.266,0.243v0.487c0,0.458,0.1,0.786,0.299,0.985
		c0.199,0.2,0.535,0.3,1.008,0.3h4.474c0.31,0,0.465,0.162,0.465,0.486v1.462c0,0.163-0.033,0.277-0.1,0.344
		S112.855,39.553,112.679,39.553z M107.164,33.262h3.012c0.162,0,0.244-0.081,0.244-0.243v-1.063c0-0.472-0.097-0.805-0.288-0.996
		c-0.192-0.191-0.524-0.288-0.997-0.288h-0.93c-0.473,0-0.805,0.097-0.997,0.288c-0.191,0.191-0.287,0.524-0.287,0.996v1.063
		C106.921,33.181,107.002,33.262,107.164,33.262z"/>
	<path class="st1" d="M119.366,39.553h-0.731c-1.137,0-1.997-0.311-2.58-0.931s-0.874-1.513-0.874-2.68v-7.22
		c0-0.31,0.154-0.465,0.465-0.465h1.882c0.311,0,0.466,0.155,0.466,0.465v7.087c0,0.473,0.1,0.809,0.299,1.008
		s0.527,0.299,0.985,0.299h0.819c1.019,0,1.528-0.561,1.528-1.683v-6.711c0-0.31,0.155-0.465,0.465-0.465h1.86
		c0.324,0,0.487,0.155,0.487,0.465v10.365c0,0.31-0.163,0.465-0.487,0.465h-1.86c-0.31,0-0.465-0.155-0.465-0.465v-0.731h-0.089
		c-0.162,0.398-0.45,0.698-0.863,0.897C120.259,39.453,119.823,39.553,119.366,39.553z"/>
	<path class="st1" d="M127.117,30.694h-0.886c-0.178,0-0.299-0.029-0.365-0.089c-0.066-0.059-0.1-0.177-0.1-0.354v-1.528
		c0-0.31,0.154-0.465,0.465-0.465h0.886c0.162,0,0.243-0.081,0.243-0.243V25.91c0-0.31,0.163-0.465,0.487-0.465h1.86
		c0.311,0,0.465,0.155,0.465,0.465v2.104c0,0.162,0.089,0.243,0.267,0.243h1.727c0.311,0,0.466,0.155,0.466,0.465v1.528
		c0,0.163-0.033,0.277-0.1,0.344s-0.188,0.1-0.366,0.1h-1.727c-0.178,0-0.267,0.081-0.267,0.243v4.895
		c0,0.458,0.104,0.786,0.311,0.985s0.546,0.299,1.019,0.299h0.886c0.311,0,0.465,0.155,0.465,0.465v1.528
		c0,0.163-0.033,0.277-0.1,0.344s-0.188,0.1-0.365,0.1h-1.351c-1.167,0-2.07-0.311-2.713-0.931s-0.964-1.506-0.964-2.657v-5.027
		C127.36,30.775,127.279,30.694,127.117,30.694z"/>
	<path class="st1" d="M137.149,39.553h-1.883c-0.31,0-0.465-0.155-0.465-0.465V24.449c0-0.311,0.155-0.466,0.465-0.466h1.883
		c0.31,0,0.465,0.155,0.465,0.466v14.639C137.614,39.397,137.459,39.553,137.149,39.553z"/>
	<path class="st1" d="M140.271,26.353v-1.927c0-0.295,0.147-0.443,0.443-0.443h1.927c0.295,0,0.442,0.141,0.442,0.421v1.949
		c0,0.295-0.147,0.442-0.442,0.442h-1.927C140.419,26.796,140.271,26.648,140.271,26.353z M140.271,39.088V28.722
		c0-0.31,0.147-0.465,0.443-0.465h1.904c0.311,0,0.465,0.155,0.465,0.465v10.365c0,0.191-0.033,0.317-0.1,0.376
		c-0.066,0.06-0.181,0.089-0.343,0.089h-1.904C140.427,39.553,140.271,39.397,140.271,39.088z"/>
	<path class="st1" d="M147.979,39.553h-1.883c-0.31,0-0.465-0.155-0.465-0.465V28.722c0-0.31,0.155-0.465,0.465-0.465h1.883
		c0.31,0,0.465,0.155,0.465,0.465v0.731h0.089c0.324-0.798,1.048-1.196,2.17-1.196h0.709c2.317,0,3.477,1.204,3.477,3.61v7.22
		c0,0.31-0.162,0.465-0.487,0.465h-1.86c-0.31,0-0.465-0.155-0.465-0.465v-7.087c0-0.473-0.1-0.809-0.299-1.008
		s-0.535-0.299-1.008-0.299h-0.797c-1.019,0-1.528,0.561-1.528,1.683v6.711C148.443,39.397,148.288,39.553,147.979,39.553z"/>
	<path class="st1" d="M161.199,39.043h-0.73c-1.137,0-1.997-0.31-2.58-0.93s-0.875-1.514-0.875-2.68v-3.565
		c0-1.167,0.317-2.06,0.953-2.68c0.634-0.62,1.535-0.931,2.701-0.931h5.116c0.324,0,0.487,0.155,0.487,0.465V39.64
		c0,1.152-0.321,2.038-0.964,2.658c-0.642,0.62-1.539,0.93-2.69,0.93h-4.252c-0.178,0-0.299-0.033-0.365-0.1s-0.1-0.181-0.1-0.343
		v-1.528c0-0.311,0.154-0.465,0.465-0.465h3.787c0.472,0,0.808-0.1,1.007-0.299c0.2-0.2,0.3-0.528,0.3-0.986v-1.683h-0.089
		c-0.163,0.398-0.45,0.701-0.864,0.908C162.093,38.94,161.657,39.043,161.199,39.043z M163.459,34.924v-3.986
		c0-0.162-0.089-0.243-0.267-0.243h-2.081c-0.473,0-0.805,0.1-0.997,0.299c-0.191,0.199-0.288,0.535-0.288,1.008v3.3
		c0,0.473,0.097,0.805,0.288,0.996c0.192,0.192,0.524,0.288,0.997,0.288h0.819C162.949,36.585,163.459,36.031,163.459,34.924z"/>
	<path class="st1" d="M177.034,39.553h-4.895c-1.166,0-2.067-0.311-2.702-0.931s-0.952-1.513-0.952-2.68v-4.074
		c0-1.167,0.317-2.06,0.952-2.68s1.536-0.931,2.702-0.931h1.75c1.166,0,2.066,0.311,2.701,0.931s0.952,1.513,0.952,2.68v2.812
		c0,0.31-0.154,0.465-0.465,0.465h-5.559c-0.177,0-0.266,0.081-0.266,0.243v0.487c0,0.458,0.1,0.786,0.299,0.985
		c0.199,0.2,0.535,0.3,1.008,0.3h4.474c0.31,0,0.465,0.162,0.465,0.486v1.462c0,0.163-0.033,0.277-0.1,0.344
		S177.211,39.553,177.034,39.553z M171.52,33.262h3.012c0.162,0,0.244-0.081,0.244-0.243v-1.063c0-0.472-0.097-0.805-0.288-0.996
		c-0.192-0.191-0.524-0.288-0.997-0.288h-0.93c-0.473,0-0.805,0.097-0.997,0.288c-0.191,0.191-0.287,0.524-0.287,0.996v1.063
		C171.276,33.181,171.357,33.262,171.52,33.262z"/>
	<path class="st1" d="M181.994,39.553h-1.882c-0.311,0-0.465-0.155-0.465-0.465V28.722c0-0.31,0.154-0.465,0.465-0.465h1.882
		c0.311,0,0.466,0.155,0.466,0.465v0.731h0.088c0.325-0.798,1.049-1.196,2.171-1.196h0.708c2.318,0,3.478,1.204,3.478,3.61v7.22
		c0,0.31-0.163,0.465-0.487,0.465h-1.86c-0.311,0-0.465-0.155-0.465-0.465v-7.087c0-0.473-0.1-0.809-0.299-1.008
		c-0.2-0.199-0.536-0.299-1.008-0.299h-0.798c-1.019,0-1.527,0.561-1.527,1.683v6.711C182.46,39.397,182.305,39.553,181.994,39.553z
		"/>
</g>
</svg>
