<svg xmlns="http://www.w3.org/2000/svg" viewBox="0 0 48 48"><path d="M33.5 16a9.439 9.439 0 00-6.5 2.602A9.439 9.439 0 0020.5 16c-5.227 0-9.5 4.273-9.5 9.5V37h6V24.5a3.51 3.51 0 013.5-3.5 3.51 3.51 0 013.5 3.5V37h6V24.5a3.51 3.51 0 013.5-3.5 3.51 3.51 0 013.5 3.5V37h6V25.5c0-5.227-4.273-9.5-9.5-9.5z" fill="#FFAB40"/><path d="M6 16.21V32" fill="none" stroke="#000" stroke-miterlimit="10"/><path d="M22 13c1.086.36 2.621 2 3 3-1.754 1.738-2.574 2.867-3 6-.14 1.05-.902 1.688-2 1-3.055-1.914-6-2-8-2-1-1-.535-3.652 0-5l6 1z" fill="#424242"/><path d="M18 17H4l11-7h14z" fill="#616161"/><path d="M7.5 30c0-2.21-.672-4-1.5-4s-1.5 1.79-1.5 4 .672 4 1.5 4 1.5-1.79 1.5-4z" fill="#424242"/></svg>